<?xml version="1.0" encoding="UTF-8" standalone="no"?>
<!-- Created with Inkscape (http://www.inkscape.org/) -->

<svg
   width="16"
   height="16"
   viewBox="0 0 16 16"
   version="1.1"
   id="svg5"
   inkscape:version="1.1.2 (1:1.1+202202050852+0a00cf5339)"
   sodipodi:docname="php favicon.svg"
   xmlns:inkscape="http://www.inkscape.org/namespaces/inkscape"
   xmlns:sodipodi="http://sodipodi.sourceforge.net/DTD/sodipodi-0.dtd"
   xmlns="http://www.w3.org/2000/svg"
   xmlns:svg="http://www.w3.org/2000/svg">
  <sodipodi:namedview
     id="namedview7"
     pagecolor="#ffffff"
     bordercolor="#999999"
     borderopacity="1"
     inkscape:pageshadow="0"
     inkscape:pageopacity="0"
     inkscape:pagecheckerboard="0"
     inkscape:document-units="px"
     showgrid="true"
     units="px"
     width="180px"
     inkscape:snap-bbox="true"
     inkscape:snap-page="true"
     inkscape:snap-global="true"
     inkscape:zoom="28.986775"
     inkscape:cx="3.6050923"
     inkscape:cy="8.0726469"
     inkscape:window-width="1920"
     inkscape:window-height="1028"
     inkscape:window-x="0"
     inkscape:window-y="0"
     inkscape:window-maximized="1"
     inkscape:current-layer="layer1"
     scale-x="1">
    <inkscape:grid
       type="xygrid"
       id="grid1513" />
  </sodipodi:namedview>
  <defs
     id="defs2">
    <clipPath
       clipPathUnits="userSpaceOnUse"
       id="clipPath1733">
      <rect
         style="fill:none;fill-opacity:1;stroke:none;stroke-width:0.750094"
         id="rect1735"
         width="5.2916665"
         height="5.2916665"
         x="-7.9375"
         y="-10.583333" />
    </clipPath>
  </defs>
  <g
     inkscape:label="Layer 1"
     inkscape:groupmode="layer"
     id="layer1">
    <rect
       style="fill:#4f5b93;fill-opacity:1;stroke:none;stroke-width:0.252"
       id="rect868"
       width="16"
       height="16"
       x="0"
       y="0"
       rx="2" />
    <g
       style="fill:#ffffff"
       id="g1511"
       transform="matrix(0.14617456,0,0,0.14617456,0.99999985,4.4827482)">
      <path
         d="m 7.579,10.123 h 14.204 c 4.169,0.035 7.19,1.237 9.063,3.604 1.873,2.367 2.491,5.6 1.855,9.699 -0.247,1.873 -0.795,3.71 -1.643,5.512 -0.813,1.802 -1.943,3.427 -3.392,4.876 -1.767,1.837 -3.657,3.003 -5.671,3.498 -2.014,0.495 -4.099,0.742 -6.254,0.742 H 9.381 L 7.367,48.124 H 0 L 7.579,10.123 v 0 m 6.201,6.042 -3.18,15.9 c 0.212,0.035 0.424,0.053 0.636,0.053 0.247,0 0.495,0 0.742,0 3.392,0.035 6.219,-0.3 8.48,-1.007 2.261,-0.742 3.781,-3.321 4.558,-7.738 0.636,-3.71 0,-5.848 -1.908,-6.413 -1.873,-0.565 -4.222,-0.83 -7.049,-0.795 -0.424,0.035 -0.83,0.053 -1.219,0.053 -0.353,0 -0.724,0 -1.113,0 l 0.053,-0.053"
         id="path1496" />
      <path
         d="m 41.093,0 h 7.314 L 46.34,10.123 h 6.572 c 3.604,0.071 6.289,0.813 8.056,2.226 1.802,1.413 2.332,4.099 1.59,8.056 l -3.551,17.649 h -7.42 L 54.979,21.2 c 0.353,-1.767 0.247,-3.021 -0.318,-3.763 -0.565,-0.742 -1.784,-1.113 -3.657,-1.113 L 45.121,16.271 40.775,38.054 H 33.461 L 41.093,0 v 0"
         id="path1498" />
      <path
         d="m 70.412,10.123 h 14.204 c 4.169,0.035 7.19,1.237 9.063,3.604 1.873,2.367 2.491,5.6 1.855,9.699 -0.247,1.873 -0.795,3.71 -1.643,5.512 -0.813,1.802 -1.943,3.427 -3.392,4.876 -1.767,1.837 -3.657,3.003 -5.671,3.498 -2.014,0.495 -4.099,0.742 -6.254,0.742 h -6.36 L 70.2,48.124 h -7.367 l 7.579,-38.001 v 0 m 6.201,6.042 -3.18,15.9 c 0.212,0.035 0.424,0.053 0.636,0.053 0.247,0 0.495,0 0.742,0 3.392,0.035 6.219,-0.3 8.48,-1.007 2.261,-0.742 3.781,-3.321 4.558,-7.738 0.636,-3.71 0,-5.848 -1.908,-6.413 -1.873,-0.565 -4.222,-0.83 -7.049,-0.795 -0.424,0.035 -0.83,0.053 -1.219,0.053 -0.353,0 -0.724,0 -1.113,0 l 0.053,-0.053"
         id="path1500" />
    </g>
  </g>
</svg>
